<?xml version="1.0" encoding="UTF-8"?>
<svg id="_レイヤー_1" data-name="レイヤー 1" xmlns="http://www.w3.org/2000/svg" xmlns:xlink="http://www.w3.org/1999/xlink" viewBox="0 0 481.22 480.92">
  <defs>
    <style>
      .cls-1 {
        fill: url(#_名称未設定グラデーション_44);
        stroke-width: 0px;
      }

      .cls-2 {
        fill: #fff;
        stroke: #fff;
        stroke-miterlimit: 10;
      }
    </style>
    <linearGradient id="_名称未設定グラデーション_44" data-name="名称未設定グラデーション 44" x1="39.42" y1="37.17" x2="444" y2="441.75" gradientUnits="userSpaceOnUse">
      <stop offset="0" stop-color="#43e7f9"/>
      <stop offset=".2" stop-color="#499ff6"/>
      <stop offset=".43" stop-color="#5185f2"/>
      <stop offset=".61" stop-color="#5f68ef"/>
      <stop offset=".8" stop-color="#7b3fe6"/>
      <stop offset="1" stop-color="#9a35e0"/>
    </linearGradient>
  </defs>
  <path class="cls-1" d="M123.59,0h224.39c80.18,5.63,122.23,44.93,133.23,111.66v256.82c-16.75,76.69-67.7,110.35-144.63,111.32H123.59C38.41,469.64,6.38,416.32,0,342.18v-208.61C8.83,60.07,42.36,8.67,123.59,0Z"/>
  <path class="cls-2" d="M97.15,119.13c18.28-24.93,40.43-43.85,66.3-57.02,26.37-12.78,55.32-17.24,86.19-15.47,26.13,3.29,50.07,9.95,70.72,21.66,24.97,14.67,42.89,31.84,55.69,50.83.25,15.67-8.13,18.22-20.86,14.14-11.35-15.72-25.34-28.97-41.91-39.78-19.39-11.32-40.01-18.84-61.88-22.54-27.87-1.41-55.56,4.37-83.1,16.8-20.37,11.42-36.87,27.07-50.83,45.53-12.94,4.66-20.71,1.45-20.33-14.14Z"/>
  <path class="cls-2" d="M140.84,145.73c25.2-33.42,57.09-50.97,96-51.86,40.91,2.49,71.76,19.86,94.72,48.91,5.16,14.25-8.85,23.84-19.42,13.27-20.09-26.36-45.67-38.8-75.94-39.32-33.39,1.11-58.81,17.24-79.38,42.52-8.85,3.69-18.16-1.77-15.98-13.52Z"/>
  <path class="cls-2" d="M183.36,170.52c13.04-19.18,30.3-31,53.16-33.04,32.23.52,51.09,12.84,61,33.04,2.54,13.56-5.28,19.17-16.73,12.28-9.2-16.63-24.92-24.95-48.29-23.51-10.5,1-22.15,10.93-34.52,26.48-10.58.94-15.72-3.85-14.61-15.25Z"/>
  <path class="cls-2" d="M319.97,480.42l-20.75-32.35-13.12-12.51c-28.01-9.24-50.67-28.43-69.89-54.02-15.42-22.33-30.79-38.54-46.08-46.08-10.38-18.62.24-33.56,25.94-28.69,14.86,7.76,30.23,21.23,45.94,38.46l-19.69-144.97c6.41-22.28,25.94-24.72,36.62-4.58l13.73,93.7,2.44-.31-3.36-25.33c6.1-23.2,28.08-20.45,35.71-3.97l3.97,28.08h3.05l-2.75-21.67c12.21-18.92,23.29-17.84,35.1-2.44l5.19,26.25,2.44.61-2.44-15.87c10.16-17.51,21.56-17.25,33.88-3.97l13.43,67.3c1.83,18.96.83,37.12-3.05,54.48,4.02,10.82,9.14,19.81,15.26,27.16l25.03,29.6c-24.89,20.24-62.95,31.18-116.59,31.13Z"/>
</svg>